<svg xmlns="http://www.w3.org/2000/svg" version="1.1" xmlns:xlink="http://www.w3.org/1999/xlink" xmlns:svgjs="http://svgjs.dev/svgjs" width="2000" height="358" viewBox="0 0 2000 358"><g transform="matrix(1,0,0,1,-1.2121212121212466,0.6832687672006443)"><svg viewBox="0 0 396 71" data-background-color="#89939e" preserveAspectRatio="xMidYMid meet" height="358" width="2000" xmlns="http://www.w3.org/2000/svg" xmlns:xlink="http://www.w3.org/1999/xlink"><g id="tight-bounds" transform="matrix(1,0,0,1,0.2400000000000091,-0.13550861025487393)"><svg viewBox="0 0 395.52 71.27101722050973" height="71.27101722050973" width="395.52"><g><svg viewBox="0 0 494.7173372452645 89.14595434388139" height="71.27101722050973" width="395.52"><g transform="matrix(1,0,0,1,99.19733724526453,12.320461128568269)"><svg viewBox="0 0 395.52 64.50503208674485" height="64.50503208674485" width="395.52"><g id="textblocktransform"><svg viewBox="0 0 395.52 64.50503208674485" height="64.50503208674485" width="395.52" id="textblock"><g><svg viewBox="0 0 395.52 64.50503208674485" height="64.50503208674485" width="395.52"><g transform="matrix(1,0,0,1,0,0)"><svg width="395.52" viewBox="4 -35.5 220.64 35.99" height="64.50503208674485" data-palette-color="#ffffff"><path d="M23.71-8.59L23.71-8.59Q23.71-6.81 23.03-5.25 22.36-3.69 21.19-2.51 20.02-1.34 18.44-0.67 16.87 0 15.09 0L15.09 0 4 0 4-35.01 15.09-35.01Q16.87-35.01 18.44-34.34 20.02-33.67 21.19-32.5 22.36-31.32 23.03-29.75 23.71-28.17 23.71-26.39L23.71-26.39 23.71-8.59ZM20.56-8.59L20.56-26.39Q20.56-27.56 20.12-28.58 19.68-29.59 18.91-30.36 18.14-31.13 17.13-31.57 16.11-32.01 14.94-32.01L14.94-32.01 7.15-32.01 7.15-3 14.94-3Q16.11-3 17.13-3.44 18.14-3.88 18.91-4.64 19.68-5.4 20.12-6.41 20.56-7.42 20.56-8.59L20.56-8.59ZM46.9-6.86L46.9-6.86Q46.9-5.35 46.32-4 45.75-2.66 44.75-1.66 43.75-0.66 42.4-0.09 41.06 0.49 39.55 0.49L39.55 0.49 37.55 0.49Q36.03 0.49 34.69-0.09 33.35-0.66 32.35-1.66 31.35-2.66 30.77-4 30.2-5.35 30.2-6.86L30.2-6.86 30.2-18.14Q30.2-19.65 30.77-21 31.35-22.34 32.35-23.34 33.35-24.34 34.69-24.91 36.03-25.49 37.55-25.49L37.55-25.49 39.55-25.49Q41.06-25.49 42.4-24.91 43.75-24.34 44.75-23.34 45.75-22.34 46.32-21 46.9-19.65 46.9-18.14L46.9-18.14 46.9-12.26 33.2-12.26 33.2-6.69Q33.2-5.79 33.54-4.99 33.88-4.2 34.47-3.61 35.06-3.03 35.85-2.69 36.64-2.34 37.55-2.34L37.55-2.34 39.55-2.34Q40.45-2.34 41.25-2.69 42.04-3.03 42.62-3.61 43.21-4.2 43.55-4.99 43.89-5.79 43.89-6.69L43.89-6.69 43.89-8.35 46.9-7.86 46.9-6.86ZM43.89-14.6L43.89-18.31Q43.89-19.21 43.55-20.01 43.21-20.8 42.62-21.39 42.04-21.97 41.25-22.31 40.45-22.66 39.55-22.66L39.55-22.66 37.55-22.66Q36.64-22.66 35.85-22.31 35.06-21.97 34.47-21.39 33.88-20.8 33.54-20.01 33.2-19.21 33.2-18.31L33.2-18.31 33.2-14.6 43.89-14.6ZM69.6-25L60.74 0 59.25 0 50.39-25 53.39-25 59.91-6.05 60-4.76 60.1-6.05 66.6-25 69.6-25ZM93.28-8.11L93.28-8.11Q93.28-6.32 92.61-4.76 91.94-3.2 90.76-2.03 89.59-0.85 88.03-0.18 86.47 0.49 84.68 0.49L84.68 0.49 82.19 0.49Q80.41 0.49 78.84-0.18 77.26-0.85 76.09-2.03 74.92-3.2 74.25-4.76 73.58-6.32 73.58-8.11L73.58-8.11 73.58-26.9Q73.58-28.69 74.25-30.25 74.92-31.81 76.09-32.98 77.26-34.16 78.84-34.83 80.41-35.5 82.19-35.5L82.19-35.5 84.68-35.5Q86.47-35.5 88.03-34.83 89.59-34.16 90.76-32.98 91.94-31.81 92.61-30.25 93.28-28.69 93.28-26.9L93.28-26.9 93.28-25.49 90.13-25 90.13-26.9Q90.13-28.08 89.69-29.09 89.25-30.1 88.49-30.86 87.74-31.62 86.72-32.06 85.71-32.5 84.54-32.5L84.54-32.5 82.34-32.5Q81.17-32.5 80.16-32.06 79.14-31.62 78.37-30.86 77.6-30.1 77.17-29.09 76.73-28.08 76.73-26.9L76.73-26.9 76.73-8.11Q76.73-6.93 77.17-5.92 77.6-4.91 78.37-4.14 79.14-3.37 80.16-2.93 81.17-2.49 82.34-2.49L82.34-2.49 84.54-2.49Q85.71-2.49 86.72-2.93 87.74-3.37 88.49-4.14 89.25-4.91 89.69-5.92 90.13-6.93 90.13-8.11L90.13-8.11 90.13-10.01 93.28-9.5 93.28-8.11ZM115.98-6.86L115.98-6.86Q115.98-5.35 115.41-4 114.83-2.66 113.83-1.66 112.83-0.66 111.49-0.09 110.15 0.49 108.63 0.49L108.63 0.49 106.63 0.49Q105.12 0.49 103.77-0.09 102.43-0.66 101.43-1.66 100.43-2.66 99.86-4 99.28-5.35 99.28-6.86L99.28-6.86 99.28-18.14Q99.28-19.65 99.86-21 100.43-22.34 101.43-23.34 102.43-24.34 103.77-24.91 105.12-25.49 106.63-25.49L106.63-25.49 108.63-25.49Q110.15-25.49 111.49-24.91 112.83-24.34 113.83-23.34 114.83-22.34 115.41-21 115.98-19.65 115.98-18.14L115.98-18.14 115.98-6.86ZM112.98-6.69L112.98-18.31Q112.98-19.21 112.64-20.01 112.29-20.8 111.71-21.39 111.12-21.97 110.33-22.31 109.54-22.66 108.63-22.66L108.63-22.66 106.63-22.66Q105.73-22.66 104.93-22.31 104.14-21.97 103.55-21.39 102.97-20.8 102.63-20.01 102.28-19.21 102.28-18.31L102.28-18.31 102.28-6.69Q102.28-5.79 102.63-4.99 102.97-4.2 103.55-3.61 104.14-3.03 104.93-2.69 105.73-2.34 106.63-2.34L106.63-2.34 108.63-2.34Q109.54-2.34 110.33-2.69 111.12-3.03 111.71-3.61 112.29-4.2 112.64-4.99 112.98-5.79 112.98-6.69L112.98-6.69ZM138.68 0L135.68 0 135.68-18.31Q135.68-19.21 135.34-20.01 135-20.8 134.41-21.39 133.83-21.97 133.03-22.31 132.24-22.66 131.34-22.66L131.34-22.66 129.33-22.66Q128.43-22.66 127.64-22.31 126.84-21.97 126.26-21.39 125.67-20.8 125.33-20.01 124.99-19.21 124.99-18.31L124.99-18.31 124.99 0 121.98 0 121.98-25 122.99-25 124.62-22.46Q125.65-23.85 127.2-24.67 128.75-25.49 130.58-25.49L130.58-25.49 131.34-25.49Q132.85-25.49 134.19-24.91 135.53-24.34 136.54-23.34 137.54-22.34 138.11-21 138.68-19.65 138.68-18.14L138.68-18.14 138.68 0ZM161.39 0L158.38 0 158.38-18.31Q158.38-19.21 158.04-20.01 157.7-20.8 157.11-21.39 156.53-21.97 155.73-22.31 154.94-22.66 154.04-22.66L154.04-22.66 152.04-22.66Q151.13-22.66 150.34-22.31 149.55-21.97 148.96-21.39 148.37-20.8 148.03-20.01 147.69-19.21 147.69-18.31L147.69-18.31 147.69 0 144.69 0 144.69-25 145.69-25 147.32-22.46Q148.35-23.85 149.9-24.67 151.45-25.49 153.28-25.49L153.28-25.49 154.04-25.49Q155.55-25.49 156.89-24.91 158.24-24.34 159.24-23.34 160.24-22.34 160.81-21 161.39-19.65 161.39-18.14L161.39-18.14 161.39 0ZM184.09-6.86L184.09-6.86Q184.09-5.35 183.52-4 182.94-2.66 181.94-1.66 180.94-0.66 179.6-0.09 178.25 0.49 176.74 0.49L176.74 0.49 174.74 0.49Q173.22 0.49 171.88-0.09 170.54-0.66 169.54-1.66 168.54-2.66 167.96-4 167.39-5.35 167.39-6.86L167.39-6.86 167.39-18.14Q167.39-19.65 167.96-21 168.54-22.34 169.54-23.34 170.54-24.34 171.88-24.91 173.22-25.49 174.74-25.49L174.74-25.49 176.74-25.49Q178.25-25.49 179.6-24.91 180.94-24.34 181.94-23.34 182.94-22.34 183.52-21 184.09-19.65 184.09-18.14L184.09-18.14 184.09-12.26 170.39-12.26 170.39-6.69Q170.39-5.79 170.73-4.99 171.08-4.2 171.66-3.61 172.25-3.03 173.04-2.69 173.84-2.34 174.74-2.34L174.74-2.34 176.74-2.34Q177.64-2.34 178.44-2.69 179.23-3.03 179.82-3.61 180.4-4.2 180.74-4.99 181.09-5.79 181.09-6.69L181.09-6.69 181.09-8.35 184.09-7.86 184.09-6.86ZM181.09-14.6L181.09-18.31Q181.09-19.21 180.74-20.01 180.4-20.8 179.82-21.39 179.23-21.97 178.44-22.31 177.64-22.66 176.74-22.66L176.74-22.66 174.74-22.66Q173.84-22.66 173.04-22.31 172.25-21.97 171.66-21.39 171.08-20.8 170.73-20.01 170.39-19.21 170.39-18.31L170.39-18.31 170.39-14.6 181.09-14.6ZM206.79-6.86L206.79-6.86Q206.79-5.35 206.22-4 205.64-2.66 204.64-1.66 203.64-0.66 202.3-0.09 200.96 0.49 199.44 0.49L199.44 0.49 197.44 0.49Q195.93 0.49 194.58-0.09 193.24-0.66 192.24-1.66 191.24-2.66 190.67-4 190.09-5.35 190.09-6.86L190.09-6.86 190.09-18.14Q190.09-19.65 190.67-21 191.24-22.34 192.24-23.34 193.24-24.34 194.58-24.91 195.93-25.49 197.44-25.49L197.44-25.49 199.44-25.49Q200.96-25.49 202.3-24.91 203.64-24.34 204.64-23.34 205.64-22.34 206.22-21 206.79-19.65 206.79-18.14L206.79-18.14 206.79-17.14 203.79-16.65 203.79-18.31Q203.79-19.21 203.45-20.01 203.11-20.8 202.52-21.39 201.93-21.97 201.14-22.31 200.35-22.66 199.44-22.66L199.44-22.66 197.44-22.66Q196.54-22.66 195.74-22.31 194.95-21.97 194.36-21.39 193.78-20.8 193.44-20.01 193.1-19.21 193.1-18.31L193.1-18.31 193.1-6.69Q193.1-5.79 193.44-4.99 193.78-4.2 194.36-3.61 194.95-3.03 195.74-2.69 196.54-2.34 197.44-2.34L197.44-2.34 199.44-2.34Q200.35-2.34 201.14-2.69 201.93-3.03 202.52-3.61 203.11-4.2 203.45-4.99 203.79-5.79 203.79-6.69L203.79-6.69 203.79-8.35 206.79-7.86 206.79-6.86ZM224.64 0L221.9 0Q220.53 0 219.33-0.51 218.12-1.03 217.23-1.93 216.33-2.83 215.81-4.03 215.29-5.22 215.29-6.59L215.29-6.59 215.29-22.14 210.79-22.14 210.79-25 215.29-25 215.29-31.01 218.29-31.49 218.29-25 224.64-25 224.64-22.14 218.29-22.14 218.29-6.45Q218.29-5.69 218.57-5.04 218.85-4.39 219.34-3.91 219.83-3.42 220.49-3.14 221.14-2.86 221.9-2.86L221.9-2.86 224.64-2.86 224.64 0Z" opacity="1" transform="matrix(1,0,0,1,0,0)" fill="#000000" class="wordmark-text-0" data-fill-palette-color="primary" id="text-0"></path></svg></g></svg></g></svg></g></svg></g><g><svg viewBox="0 0 83.96924729035416 89.14595434388139" height="89.14595434388139" width="83.96924729035416"><g><svg xmlns="http://www.w3.org/2000/svg" xmlns:xlink="http://www.w3.org/1999/xlink" version="1.1" x="0" y="0" viewBox="18.45259014601097 16.433999999999997 50.86045138066502 53.995999999999995" enable-background="new 0 0 90 90" xml:space="preserve" height="89.14595434388139" width="83.96924729035416" class="icon-icon-0" data-fill-palette-color="accent" id="icon-0"><path d="M68.617 46.749c-1.019-2.724-3.037-4.888-5.683-6.092-1.43-0.651-2.945-0.979-4.506-0.979-1.95 0-3.812 0.546-5.438 1.486l-9.532-11.926c0.198-0.314 0.38-0.64 0.538-0.983 1.908-4.194 0.05-9.16-4.141-11.068-1.097-0.5-2.261-0.753-3.458-0.753-3.269 0-6.257 1.92-7.613 4.894-1.909 4.193-0.05 9.158 4.143 11.071 1.097 0.5 2.262 0.753 3.458 0.753 1.759 0 3.428-0.572 4.815-1.551l9.256 11.579c-0.779 0.839-1.445 1.792-1.933 2.866-0.966 2.116-1.212 4.435-0.754 6.672l-13.812 5.029c-0.862-1.432-2.125-2.573-3.679-3.28-1.097-0.501-2.262-0.754-3.46-0.754-3.268 0-6.256 1.922-7.608 4.893-0.926 2.03-1.006 4.301-0.223 6.392 0.782 2.09 2.331 3.752 4.363 4.676 1.098 0.5 2.263 0.756 3.464 0.756 3.266 0 6.25-1.922 7.604-4.895 0.685-1.51 0.903-3.146 0.651-4.743l13.81-5.029c1.119 2.064 2.86 3.714 5.035 4.703 1.432 0.651 2.947 0.98 4.511 0.98 4.256 0 8.143-2.503 9.903-6.374C69.532 52.428 69.637 49.473 68.617 46.749zM31.466 64.189c-0.829 1.819-2.656 2.996-4.656 2.996-0.731 0-1.444-0.156-2.12-0.462-1.244-0.568-2.192-1.584-2.671-2.863-0.48-1.28-0.431-2.668 0.136-3.913 0.829-1.819 2.658-2.998 4.659-2.998 0.73 0 1.443 0.158 2.115 0.465 1.246 0.566 2.194 1.584 2.671 2.862C32.079 61.555 32.033 62.945 31.466 64.189z" fill="#000000" data-fill-palette-color="accent"></path></svg></g></svg></g></svg></g><defs></defs></svg><rect width="395.52" height="71.27101722050973" fill="none" stroke="none" visibility="hidden"></rect></g></svg></g></svg>